<mxfile host="Electron" modified="2024-08-18T17:13:17.549Z" agent="Mozilla/5.0 (Windows NT 10.0; Win64; x64) AppleWebKit/537.36 (KHTML, like Gecko) draw.io/24.5.1 Chrome/124.0.6367.207 Electron/30.0.6 Safari/537.36" etag="CDQ9GGidU0t77reEsXvz" version="24.5.1" type="device">
  <diagram name="Page-1" id="0P8BpcxCJEsU4fvdGjS9">
    <mxGraphModel dx="1103" dy="813" grid="1" gridSize="10" guides="1" tooltips="1" connect="1" arrows="1" fold="1" page="1" pageScale="1" pageWidth="850" pageHeight="1100" math="0" shadow="0">
      <root>
        <mxCell id="0" />
        <mxCell id="1" parent="0" />
        <mxCell id="9BkWSAyW9PCSGgsLv2j_-3" value="" style="edgeStyle=orthogonalEdgeStyle;rounded=0;orthogonalLoop=1;jettySize=auto;html=1;" edge="1" parent="1" source="9BkWSAyW9PCSGgsLv2j_-6">
          <mxGeometry relative="1" as="geometry">
            <mxPoint x="340" y="130" as="targetPoint" />
          </mxGeometry>
        </mxCell>
        <mxCell id="9BkWSAyW9PCSGgsLv2j_-2" value="start" style="strokeWidth=2;html=1;shape=mxgraph.flowchart.start_1;whiteSpace=wrap;" vertex="1" parent="1">
          <mxGeometry x="290" y="20" width="100" height="50" as="geometry" />
        </mxCell>
        <mxCell id="9BkWSAyW9PCSGgsLv2j_-9" value="" style="edgeStyle=orthogonalEdgeStyle;rounded=0;orthogonalLoop=1;jettySize=auto;html=1;" edge="1" parent="1" source="9BkWSAyW9PCSGgsLv2j_-6" target="9BkWSAyW9PCSGgsLv2j_-8">
          <mxGeometry relative="1" as="geometry" />
        </mxCell>
        <mxCell id="9BkWSAyW9PCSGgsLv2j_-10" value="NO" style="edgeLabel;html=1;align=center;verticalAlign=middle;resizable=0;points=[];" vertex="1" connectable="0" parent="9BkWSAyW9PCSGgsLv2j_-9">
          <mxGeometry x="-0.0262" y="3" relative="1" as="geometry">
            <mxPoint as="offset" />
          </mxGeometry>
        </mxCell>
        <mxCell id="9BkWSAyW9PCSGgsLv2j_-12" value="" style="edgeStyle=orthogonalEdgeStyle;rounded=0;orthogonalLoop=1;jettySize=auto;html=1;" edge="1" parent="1" source="9BkWSAyW9PCSGgsLv2j_-6" target="9BkWSAyW9PCSGgsLv2j_-11">
          <mxGeometry relative="1" as="geometry" />
        </mxCell>
        <mxCell id="9BkWSAyW9PCSGgsLv2j_-13" value="YES" style="edgeLabel;html=1;align=center;verticalAlign=middle;resizable=0;points=[];" vertex="1" connectable="0" parent="9BkWSAyW9PCSGgsLv2j_-12">
          <mxGeometry x="-0.4526" relative="1" as="geometry">
            <mxPoint as="offset" />
          </mxGeometry>
        </mxCell>
        <mxCell id="9BkWSAyW9PCSGgsLv2j_-8" value="redirect to login" style="rounded=1;whiteSpace=wrap;html=1;" vertex="1" parent="1">
          <mxGeometry x="460" y="125" width="120" height="60" as="geometry" />
        </mxCell>
        <mxCell id="9BkWSAyW9PCSGgsLv2j_-15" value="" style="edgeStyle=orthogonalEdgeStyle;rounded=0;orthogonalLoop=1;jettySize=auto;html=1;" edge="1" parent="1" source="9BkWSAyW9PCSGgsLv2j_-11" target="9BkWSAyW9PCSGgsLv2j_-14">
          <mxGeometry relative="1" as="geometry" />
        </mxCell>
        <mxCell id="9BkWSAyW9PCSGgsLv2j_-16" value="Lecturer" style="edgeLabel;html=1;align=center;verticalAlign=middle;resizable=0;points=[];" vertex="1" connectable="0" parent="9BkWSAyW9PCSGgsLv2j_-15">
          <mxGeometry x="-0.0746" y="1" relative="1" as="geometry">
            <mxPoint as="offset" />
          </mxGeometry>
        </mxCell>
        <mxCell id="9BkWSAyW9PCSGgsLv2j_-18" value="" style="edgeStyle=orthogonalEdgeStyle;rounded=0;orthogonalLoop=1;jettySize=auto;html=1;" edge="1" parent="1" source="9BkWSAyW9PCSGgsLv2j_-11" target="9BkWSAyW9PCSGgsLv2j_-17">
          <mxGeometry relative="1" as="geometry" />
        </mxCell>
        <mxCell id="9BkWSAyW9PCSGgsLv2j_-19" value="student" style="edgeLabel;html=1;align=center;verticalAlign=middle;resizable=0;points=[];" vertex="1" connectable="0" parent="9BkWSAyW9PCSGgsLv2j_-18">
          <mxGeometry x="-0.2228" relative="1" as="geometry">
            <mxPoint as="offset" />
          </mxGeometry>
        </mxCell>
        <mxCell id="9BkWSAyW9PCSGgsLv2j_-11" value="&lt;div&gt;&lt;br&gt;&lt;/div&gt;&lt;div&gt;&lt;span style=&quot;background-color: initial;&quot;&gt;determine&amp;nbsp;&lt;/span&gt;&lt;br&gt;&lt;/div&gt;&lt;div&gt;the user role&lt;div&gt;(lecturer - host)&lt;/div&gt;&lt;div&gt;(student)&lt;/div&gt;&lt;div&gt;and joins them&amp;nbsp;&lt;/div&gt;&lt;div&gt;to a room&lt;/div&gt;&lt;/div&gt;" style="strokeWidth=2;html=1;shape=mxgraph.flowchart.decision;whiteSpace=wrap;" vertex="1" parent="1">
          <mxGeometry x="262.5" y="260" width="155" height="170" as="geometry" />
        </mxCell>
        <mxCell id="9BkWSAyW9PCSGgsLv2j_-31" style="edgeStyle=orthogonalEdgeStyle;rounded=0;orthogonalLoop=1;jettySize=auto;html=1;entryX=0;entryY=0.75;entryDx=0;entryDy=0;exitX=0.5;exitY=1;exitDx=0;exitDy=0;" edge="1" parent="1" source="9BkWSAyW9PCSGgsLv2j_-14" target="9BkWSAyW9PCSGgsLv2j_-29">
          <mxGeometry relative="1" as="geometry" />
        </mxCell>
        <mxCell id="9BkWSAyW9PCSGgsLv2j_-14" value="Starts the meeting emitting an event to signal all participants, and sets the course session to in meeting" style="whiteSpace=wrap;html=1;strokeWidth=2;" vertex="1" parent="1">
          <mxGeometry x="10" y="302.5" width="160" height="85" as="geometry" />
        </mxCell>
        <mxCell id="9BkWSAyW9PCSGgsLv2j_-28" value="" style="edgeStyle=orthogonalEdgeStyle;rounded=0;orthogonalLoop=1;jettySize=auto;html=1;" edge="1" parent="1" source="9BkWSAyW9PCSGgsLv2j_-17" target="9BkWSAyW9PCSGgsLv2j_-21">
          <mxGeometry relative="1" as="geometry" />
        </mxCell>
        <mxCell id="9BkWSAyW9PCSGgsLv2j_-17" value="waits for host to start meeting" style="whiteSpace=wrap;html=1;strokeWidth=2;" vertex="1" parent="1">
          <mxGeometry x="468.75" y="315" width="120" height="60" as="geometry" />
        </mxCell>
        <mxCell id="9BkWSAyW9PCSGgsLv2j_-30" value="" style="edgeStyle=orthogonalEdgeStyle;rounded=0;orthogonalLoop=1;jettySize=auto;html=1;" edge="1" parent="1" source="9BkWSAyW9PCSGgsLv2j_-21" target="9BkWSAyW9PCSGgsLv2j_-29">
          <mxGeometry relative="1" as="geometry" />
        </mxCell>
        <mxCell id="9BkWSAyW9PCSGgsLv2j_-34" value="Yes" style="edgeLabel;html=1;align=center;verticalAlign=middle;resizable=0;points=[];" vertex="1" connectable="0" parent="9BkWSAyW9PCSGgsLv2j_-30">
          <mxGeometry x="-0.1397" y="2" relative="1" as="geometry">
            <mxPoint as="offset" />
          </mxGeometry>
        </mxCell>
        <mxCell id="9BkWSAyW9PCSGgsLv2j_-21" value="&lt;div&gt;check if meeting is started&lt;/div&gt;" style="strokeWidth=2;html=1;shape=mxgraph.flowchart.decision;whiteSpace=wrap;" vertex="1" parent="1">
          <mxGeometry x="470.25" y="425" width="117.5" height="130" as="geometry" />
        </mxCell>
        <mxCell id="9BkWSAyW9PCSGgsLv2j_-24" value="" style="endArrow=none;html=1;rounded=0;exitX=1;exitY=0.5;exitDx=0;exitDy=0;exitPerimeter=0;" edge="1" parent="1" source="9BkWSAyW9PCSGgsLv2j_-21">
          <mxGeometry width="50" height="50" relative="1" as="geometry">
            <mxPoint x="642.5" y="560" as="sourcePoint" />
            <mxPoint x="720" y="490" as="targetPoint" />
          </mxGeometry>
        </mxCell>
        <mxCell id="9BkWSAyW9PCSGgsLv2j_-27" value="NO" style="edgeLabel;html=1;align=center;verticalAlign=middle;resizable=0;points=[];" vertex="1" connectable="0" parent="9BkWSAyW9PCSGgsLv2j_-24">
          <mxGeometry x="0.0444" y="-1" relative="1" as="geometry">
            <mxPoint as="offset" />
          </mxGeometry>
        </mxCell>
        <mxCell id="9BkWSAyW9PCSGgsLv2j_-25" value="" style="endArrow=none;html=1;rounded=0;" edge="1" parent="1">
          <mxGeometry width="50" height="50" relative="1" as="geometry">
            <mxPoint x="720" y="490" as="sourcePoint" />
            <mxPoint x="720" y="360" as="targetPoint" />
          </mxGeometry>
        </mxCell>
        <mxCell id="9BkWSAyW9PCSGgsLv2j_-26" value="" style="endArrow=classic;html=1;rounded=0;" edge="1" parent="1">
          <mxGeometry width="50" height="50" relative="1" as="geometry">
            <mxPoint x="720" y="360" as="sourcePoint" />
            <mxPoint x="591" y="360" as="targetPoint" />
          </mxGeometry>
        </mxCell>
        <mxCell id="9BkWSAyW9PCSGgsLv2j_-33" value="" style="edgeStyle=orthogonalEdgeStyle;rounded=0;orthogonalLoop=1;jettySize=auto;html=1;" edge="1" parent="1" source="9BkWSAyW9PCSGgsLv2j_-29" target="9BkWSAyW9PCSGgsLv2j_-32">
          <mxGeometry relative="1" as="geometry" />
        </mxCell>
        <mxCell id="9BkWSAyW9PCSGgsLv2j_-29" value="Setup WebRTC Peer Connection.&lt;div&gt;&lt;br&gt;&lt;/div&gt;" style="rounded=1;whiteSpace=wrap;html=1;" vertex="1" parent="1">
          <mxGeometry x="280" y="450" width="120" height="60" as="geometry" />
        </mxCell>
        <mxCell id="9BkWSAyW9PCSGgsLv2j_-36" value="" style="edgeStyle=orthogonalEdgeStyle;rounded=0;orthogonalLoop=1;jettySize=auto;html=1;" edge="1" parent="1" source="9BkWSAyW9PCSGgsLv2j_-32" target="9BkWSAyW9PCSGgsLv2j_-35">
          <mxGeometry relative="1" as="geometry" />
        </mxCell>
        <mxCell id="9BkWSAyW9PCSGgsLv2j_-32" value="Exchange ICE candidates and SDP" style="rounded=0;whiteSpace=wrap;html=1;" vertex="1" parent="1">
          <mxGeometry x="280" y="540" width="120" height="60" as="geometry" />
        </mxCell>
        <mxCell id="9BkWSAyW9PCSGgsLv2j_-40" value="" style="edgeStyle=orthogonalEdgeStyle;rounded=0;orthogonalLoop=1;jettySize=auto;html=1;" edge="1" parent="1" source="9BkWSAyW9PCSGgsLv2j_-35" target="9BkWSAyW9PCSGgsLv2j_-39">
          <mxGeometry relative="1" as="geometry" />
        </mxCell>
        <mxCell id="9BkWSAyW9PCSGgsLv2j_-46" value="" style="edgeStyle=orthogonalEdgeStyle;rounded=0;orthogonalLoop=1;jettySize=auto;html=1;" edge="1" parent="1" source="9BkWSAyW9PCSGgsLv2j_-35" target="9BkWSAyW9PCSGgsLv2j_-43">
          <mxGeometry relative="1" as="geometry" />
        </mxCell>
        <mxCell id="9BkWSAyW9PCSGgsLv2j_-35" value="Get all participants info and store it, for attendance tracking" style="rounded=0;whiteSpace=wrap;html=1;" vertex="1" parent="1">
          <mxGeometry x="280" y="620" width="120" height="60" as="geometry" />
        </mxCell>
        <mxCell id="9BkWSAyW9PCSGgsLv2j_-41" style="edgeStyle=orthogonalEdgeStyle;rounded=0;orthogonalLoop=1;jettySize=auto;html=1;exitX=0.5;exitY=0;exitDx=0;exitDy=0;" edge="1" parent="1" source="9BkWSAyW9PCSGgsLv2j_-39">
          <mxGeometry relative="1" as="geometry">
            <mxPoint x="140" y="505" as="targetPoint" />
            <mxPoint x="140" y="600" as="sourcePoint" />
          </mxGeometry>
        </mxCell>
        <mxCell id="9BkWSAyW9PCSGgsLv2j_-42" value="Yes" style="edgeLabel;html=1;align=center;verticalAlign=middle;resizable=0;points=[];" vertex="1" connectable="0" parent="9BkWSAyW9PCSGgsLv2j_-41">
          <mxGeometry x="-0.068" y="1" relative="1" as="geometry">
            <mxPoint as="offset" />
          </mxGeometry>
        </mxCell>
        <mxCell id="9BkWSAyW9PCSGgsLv2j_-39" value="is connection interrupted?" style="rhombus;whiteSpace=wrap;html=1;rounded=0;" vertex="1" parent="1">
          <mxGeometry x="80" y="595" width="120" height="110" as="geometry" />
        </mxCell>
        <mxCell id="9BkWSAyW9PCSGgsLv2j_-47" value="" style="edgeStyle=orthogonalEdgeStyle;rounded=0;orthogonalLoop=1;jettySize=auto;html=1;" edge="1" parent="1" source="9BkWSAyW9PCSGgsLv2j_-43" target="9BkWSAyW9PCSGgsLv2j_-44">
          <mxGeometry relative="1" as="geometry" />
        </mxCell>
        <mxCell id="9BkWSAyW9PCSGgsLv2j_-43" value="when a participant end the call, if it is the host, end for all, otherwise participant should simply be disconnected" style="rounded=0;whiteSpace=wrap;html=1;" vertex="1" parent="1">
          <mxGeometry x="200" y="705" width="280" height="60" as="geometry" />
        </mxCell>
        <mxCell id="9BkWSAyW9PCSGgsLv2j_-44" value="End" style="strokeWidth=2;html=1;shape=mxgraph.flowchart.start_1;whiteSpace=wrap;" vertex="1" parent="1">
          <mxGeometry x="290" y="790" width="100" height="60" as="geometry" />
        </mxCell>
        <mxCell id="9BkWSAyW9PCSGgsLv2j_-45" value="" style="edgeStyle=orthogonalEdgeStyle;rounded=0;orthogonalLoop=1;jettySize=auto;html=1;" edge="1" parent="1" source="9BkWSAyW9PCSGgsLv2j_-2" target="9BkWSAyW9PCSGgsLv2j_-6">
          <mxGeometry relative="1" as="geometry">
            <mxPoint x="340" y="70" as="sourcePoint" />
            <mxPoint x="340" y="130" as="targetPoint" />
          </mxGeometry>
        </mxCell>
        <mxCell id="9BkWSAyW9PCSGgsLv2j_-6" value="check if user is authnticated and authorised" style="strokeWidth=2;html=1;shape=mxgraph.flowchart.decision;whiteSpace=wrap;" vertex="1" parent="1">
          <mxGeometry x="272.5" y="90" width="135" height="130" as="geometry" />
        </mxCell>
      </root>
    </mxGraphModel>
  </diagram>
</mxfile>
